<svg width="60" height="60" xmlns="http://www.w3.org/2000/svg">

 <g>
  <title>background</title>
  <rect fill="none" id="canvas_background" height="62" width="62" y="-1" x="-1"/>
 </g>
 <g>
  <title>Layer 1</title>
  <path d="m30.02,11.932c-1.739,0 -3.168,1.429 -3.168,3.17l0,7.27l-5.156,-5.157c-1.233,-1.23 -3.21,-1.231 -4.439,0c-1.23,1.233 -1.231,3.25 0,4.481l5.2,5.156l-7.354,0c-1.741,0 -3.17,1.43 -3.17,3.169c0,1.741 1.429,3.128 3.17,3.128l7.312,0l-5.158,5.156c-1.23,1.231 -1.231,3.249 0,4.479c1.233,1.23 3.25,1.191 4.48,-0.042l5.115,-5.156l0,7.354c0,1.742 1.43,3.129 3.168,3.129c1.742,0 3.128,-1.387 3.128,-3.129l0,-7.395l5.241,5.197c1.233,1.23 3.207,1.233 4.438,0c1.23,-1.231 1.232,-3.207 0,-4.438l-5.198,-5.156l7.311,0c1.742,0 3.129,-1.387 3.129,-3.128c0,-1.739 -1.387,-3.169 -3.129,-3.169l-7.354,0l5.198,-5.241c1.23,-1.233 1.232,-3.167 0,-4.396c-1.23,-1.23 -3.207,-1.274 -4.438,-0.042l-5.198,5.241l0,-7.312c0,-1.74 -1.386,-3.169 -3.128,-3.169z" opacity="0.3" fill="#ffffff" id="rect3894"/>
 </g>
</svg>